<svg width="128" height="24" viewBox="0 0 128 24" fill="none" xmlns="http://www.w3.org/2000/svg">
<path d="M119.091 23.684V23.1156H120.566L116.944 15.7893L116.336 15.9472V23.1156H117.81V23.684H108.613V23.1156H110.375V0.568416H108.484V0H116.336V15.3156L116.848 15.1262L124.059 9.22096H121.046V8.65255H127.359V9.22096H125.116L121.303 12.4104L126.847 23.1156H128V23.684H119.091Z" fill="#2F00FF"/>
<path d="M102.406 8.90533C101.466 8.90533 100.793 9.41059 100.387 10.4211C99.9815 11.4316 99.7786 13.1053 99.7786 15.4421V17.0842C99.7786 19.1684 100.014 20.6631 100.484 21.5684C100.954 22.4736 101.819 22.9262 103.079 22.9262C104.34 22.9262 105.344 22.5052 106.092 21.6631C106.839 20.821 107.32 19.8631 107.534 18.7894L108.11 18.8526C107.705 20.6631 106.957 21.9684 105.867 22.7683C104.756 23.5894 103.229 23.9999 101.285 23.9999C98.8065 23.9999 96.9051 23.3473 95.5806 22.042C94.256 20.7157 93.5938 18.7894 93.5938 16.2632C93.5938 13.7158 94.3415 11.7579 95.8369 10.3895C97.3538 9.02112 99.4581 8.33691 102.15 8.33691C104.051 8.33691 105.504 8.70533 106.508 9.44217C107.512 10.1579 108.014 11.0632 108.014 12.1579C108.014 13.2527 107.769 14.0526 107.277 14.5579C106.807 15.0632 106.145 15.3158 105.29 15.3158C104.457 15.3158 103.784 15.0947 103.272 14.6526C102.759 14.2105 102.502 13.5579 102.502 12.6948C102.502 12.3158 102.556 11.9369 102.663 11.5579H103.72C103.87 11.1369 103.945 10.7579 103.945 10.4211C103.945 9.41059 103.432 8.90533 102.406 8.90533Z" fill="#2F00FF"/>
<path d="M87.9756 6.47421C86.8433 6.47421 86.0315 6.19 85.5401 5.62159C85.0701 5.05317 84.8351 4.34792 84.8351 3.50582C84.8351 2.66372 85.0915 1.96899 85.6042 1.42163C86.1383 0.874267 86.9395 0.600586 88.0077 0.600586C89.0759 0.600586 89.8877 0.853215 90.4431 1.35847C90.9986 1.84268 91.2763 2.54793 91.2763 3.47424C91.2763 4.3795 91.0093 5.1058 90.4752 5.65317C89.9411 6.20053 89.1079 6.47421 87.9756 6.47421ZM83.1367 8.65314H90.9879V23.1161H92.7825V23.6846H83.2649V23.1161H85.0274V9.22155H83.1367V8.65314Z" fill="#2F00FF"/>
<path d="M63.1133 1.57861H72.5347C75.7606 1.57861 78.1641 2.04177 79.745 2.96807C81.3259 3.87333 82.1164 5.50489 82.1164 7.86276C82.1164 10.4733 81.155 12.2732 79.2323 13.2627C77.4377 14.168 74.9275 14.6206 71.7015 14.6206H71.4452V23.0837H75.4509V23.6837H63.1133V23.0837H65.1962V2.17861H63.1133V1.57861ZM71.4452 2.17861V14.0206H72.1181C73.3999 14.0206 74.2865 13.589 74.7779 12.7259C75.2693 11.8627 75.515 10.4627 75.515 8.52591V7.01014C75.515 5.22068 75.28 3.96806 74.81 3.25228C74.3613 2.5365 73.5281 2.17861 72.3104 2.17861H71.4452Z" fill="#2F00FF"/>
<path d="M47.1866 9.22076V8.65234H55.4544V9.22076H54.1405L57.0247 19.8628L59.8767 9.22076H57.6656V8.65234H61.9917V9.22076H60.6458L56.8003 23.6838H52.4101L49.6221 13.9891L46.6098 23.6838H42.3157L37.5729 9.22076H36.1309V8.65234H45.8407V9.22076H43.918L46.8662 19.9575L49.1735 12.5681L48.3723 9.22076H47.1866Z" fill="#2F00FF"/>
<path d="M29.1018 23.9999C26.3458 23.9999 24.2736 23.3052 22.8849 21.9157C21.5176 20.5052 20.834 18.5579 20.834 16.0737C20.834 13.5684 21.6031 11.6527 23.1413 10.3264C24.7008 9.00007 26.677 8.33691 29.0697 8.33691C33.9193 8.33691 36.248 10.7369 36.0557 15.5368H27.0188V16.7684C27.0188 18.8315 27.2859 20.3894 27.8199 21.442C28.354 22.4947 29.2834 23.021 30.6079 23.021C33.0861 23.021 34.7098 21.7157 35.4789 19.1052L36.0557 19.2C35.6498 20.7157 34.9127 21.8947 33.8445 22.7368C32.7977 23.5789 31.2168 23.9999 29.1018 23.9999ZM27.0508 14.9053H30.3516V13.3579C30.3516 11.6527 30.2447 10.4948 30.0311 9.88427C29.8388 9.2527 29.4329 8.93691 28.8134 8.93691C28.2152 8.93691 27.7665 9.27375 27.4674 9.94742C27.1897 10.6 27.0508 11.7369 27.0508 13.3579V14.9053Z" fill="#2F00FF"/>
<path d="M18.1058 2.17861V23.6837H13.6194L2.62775 3.25228V23.0837H4.39026V23.6837H0V23.0837H1.76251V2.17861H0V1.57861H8.84461L17.2406 17.4311V2.17861H15.4781V1.57861H19.8683V2.17861H18.1058Z" fill="#2F00FF"/>
</svg>
