<svg width="162" height="31" viewBox="0 0 162 31" fill="none" xmlns="http://www.w3.org/2000/svg">
<path d="M150.245 29.8796V29.1625H152.105L147.536 19.9197L146.768 20.1189V29.1625H148.628V29.8796H137.025V29.1625H139.249V0.71711H136.863V0H146.768V19.3221L147.415 19.0831L156.512 11.6331H152.711V10.916H160.676V11.6331H157.846L153.035 15.6569L160.029 29.1625H161.484V29.8796H150.245Z" fill="#2F00FF"/>
<path d="M129.196 11.2347C128.01 11.2347 127.161 11.8721 126.649 13.147C126.137 14.4218 125.881 16.5333 125.881 19.4815V21.5531C125.881 24.1825 126.177 26.0682 126.77 27.2103C127.363 28.3524 128.455 28.9234 130.045 28.9234C131.635 28.9234 132.902 28.3922 133.845 27.3298C134.789 26.2674 135.395 25.059 135.665 23.7044L136.392 23.7841C135.88 26.0682 134.937 27.7149 133.562 28.7242C132.161 29.76 130.234 30.2779 127.781 30.2779C124.655 30.2779 122.256 29.4546 120.585 27.8079C118.914 26.1346 118.078 23.7044 118.078 20.5173C118.078 17.3036 119.021 14.8335 120.908 13.1071C122.822 11.3808 125.477 10.5176 128.873 10.5176C131.271 10.5176 133.104 10.9824 134.371 11.912C135.638 12.815 136.271 13.9571 136.271 15.3382C136.271 16.7193 135.961 17.7285 135.341 18.3659C134.748 19.0034 133.913 19.3221 132.835 19.3221C131.783 19.3221 130.934 19.0432 130.288 18.4855C129.641 17.9277 129.317 17.1044 129.317 16.0154C129.317 15.5373 129.385 15.0593 129.519 14.5812H130.854C131.042 14.05 131.137 13.5719 131.137 13.147C131.137 11.8721 130.49 11.2347 129.196 11.2347Z" fill="#2F00FF"/>
<path d="M110.989 8.16795C109.561 8.16795 108.537 7.80939 107.917 7.09228C107.324 6.37517 107.027 5.48542 107.027 4.42304C107.027 3.36065 107.351 2.48419 107.998 1.79364C108.672 1.10309 109.682 0.757812 111.03 0.757812C112.378 0.757812 113.402 1.07653 114.103 1.71396C114.803 2.32483 115.154 3.21458 115.154 4.3832C115.154 5.52526 114.817 6.44157 114.143 7.13212C113.469 7.82267 112.418 8.16795 110.989 8.16795ZM104.885 10.9169H114.79V29.1633H117.054V29.8804H105.046V29.1633H107.27V11.634H104.885V10.9169Z" fill="#2F00FF"/>
<path d="M79.623 1.99121H91.5091C95.5789 1.99121 98.611 2.57552 100.606 3.74415C102.6 4.88621 103.597 6.94458 103.597 9.91926C103.597 13.2127 102.384 15.4835 99.9587 16.7318C97.6947 17.8739 94.5278 18.4449 90.4579 18.4449H90.1345V29.1219H95.1881V29.8788H79.623V29.1219H82.2509V2.74816H79.623V1.99121ZM90.1345 2.74816V17.688H90.9835C92.6007 17.688 93.7192 17.1435 94.3391 16.0545C94.959 14.9656 95.2689 13.1994 95.2689 10.7559V8.8436C95.2689 6.58603 94.9725 5.00573 94.3795 4.1027C93.8135 3.19967 92.7624 2.74816 91.2261 2.74816H90.1345Z" fill="#2F00FF"/>
<path d="M59.5299 11.6331V10.916H69.9605V11.6331H68.303L71.9415 25.059L75.5397 11.6331H72.7501V10.916H78.208V11.6331H76.51L71.6585 29.8796H66.1198L62.6025 17.6489L58.8022 29.8796H53.3848L47.4013 11.6331H45.582V10.916H57.8319V11.6331H55.4062L59.1256 25.1785L62.0365 15.8561L61.0258 11.6331H59.5299Z" fill="#2F00FF"/>
<path d="M36.7158 30.2779C33.2389 30.2779 30.6245 29.4015 28.8726 27.6485C27.1476 25.869 26.2852 23.4123 26.2852 20.2782C26.2852 17.1176 27.2554 14.7007 29.196 13.0275C31.1636 11.3542 33.6567 10.5176 36.6753 10.5176C42.7935 10.5176 45.7314 13.5454 45.4888 19.601H34.0879V21.1547C34.0879 23.7576 34.4248 25.723 35.0986 27.0509C35.7724 28.3789 36.9449 29.0429 38.6159 29.0429C41.7424 29.0429 43.7908 27.3962 44.7611 24.1028L45.4888 24.2223C44.9767 26.1346 44.0468 27.622 42.6992 28.6844C41.3785 29.7467 39.384 30.2779 36.7158 30.2779ZM34.1283 18.8042H38.2925V16.852C38.2925 14.7007 38.1577 13.2399 37.8882 12.4697C37.6456 11.6729 37.1335 11.2745 36.3519 11.2745C35.5972 11.2745 35.0312 11.6995 34.6539 12.5494C34.3035 13.3727 34.1283 14.807 34.1283 16.852V18.8042Z" fill="#2F00FF"/>
<path d="M22.8422 2.74816V29.8788H17.1822L3.31515 4.1027V29.1219H5.53873V29.8788H0V29.1219H2.22358V2.74816H0V1.99121H11.1583L21.7506 21.9906V2.74816H19.5271V1.99121H25.0658V2.74816H22.8422Z" fill="#2F00FF"/>
</svg>
