<svg width="68" height="13" viewBox="0 0 68 13" fill="none" xmlns="http://www.w3.org/2000/svg">
<path d="M44.2168 0.429688H54.6421V2.36075H50.5061V12.5214H48.4377V2.36075H44.2168V0.429688Z" fill="black"/>
<path d="M27.0687 0.429688V2.36075H18.7118V5.46782H25.4327V7.39889H18.7118V10.5895H27.0687V12.5206H16.6434V2.36075H16.6426V0.429688H27.0687Z" fill="black"/>
<path d="M32.2768 0.436523H29.5703L39.2637 12.5282H41.9775L37.13 6.48605L41.9694 0.444713L39.2629 0.448808L35.7747 4.79657L32.2768 0.436523Z" fill="black"/>
<path d="M35.0518 9.07393L33.6966 7.38281L29.5605 12.5381H32.2744L35.0518 9.07393Z" fill="black"/>
<path fill-rule="evenodd" clip-rule="evenodd" d="M16.7183 12.5224L7.01264 0.425781H4.42773V12.5175H6.49533V3.01036L14.1203 12.5224H16.7183Z" fill="black"/>
<path d="M55.105 12.4487C54.9532 12.4487 54.8243 12.3963 54.7166 12.2906C54.6089 12.185 54.555 12.058 54.5567 11.9065C54.555 11.7599 54.6089 11.6338 54.7166 11.5282C54.8243 11.4225 54.9532 11.3701 55.105 11.3701C55.251 11.3701 55.3783 11.4225 55.486 11.5282C55.5954 11.6338 55.65 11.7599 55.6517 11.9065C55.65 12.0064 55.6247 12.0973 55.5742 12.1792C55.5228 12.2628 55.4567 12.3275 55.3734 12.375C55.2927 12.4241 55.2029 12.4487 55.105 12.4487Z" fill="black"/>
<path d="M58.6364 7.35547H59.5527V10.899C59.5511 11.225 59.4809 11.5034 59.3438 11.7376C59.2051 11.9718 59.0134 12.1504 58.767 12.2765C58.5214 12.401 58.2342 12.4649 57.9078 12.4649C57.6092 12.4649 57.3415 12.4108 57.1033 12.3052C56.865 12.1995 56.6757 12.0423 56.537 11.8343C56.3967 11.6263 56.3281 11.3675 56.3281 11.0571H57.2461C57.2477 11.193 57.2779 11.311 57.3374 11.4092C57.3962 11.5075 57.4778 11.5828 57.5814 11.6353C57.6867 11.6877 57.8066 11.7139 57.9429 11.7139C58.0897 11.7139 58.2162 11.6836 58.3182 11.6213C58.4202 11.5607 58.4993 11.469 58.554 11.347C58.607 11.2266 58.6356 11.0767 58.6364 10.899V7.35547Z" fill="black"/>
<path d="M63.3227 8.74105C63.3007 8.52649 63.2019 8.3586 63.0314 8.23904C62.8592 8.11865 62.6365 8.05887 62.3631 8.05887C62.1714 8.05887 62.0057 8.08835 61.8687 8.14486C61.7316 8.203 61.6247 8.2808 61.5521 8.37907C61.4795 8.47735 61.4427 8.58954 61.4403 8.71566C61.4403 8.8213 61.4656 8.91221 61.5146 8.98837C61.5635 9.06617 61.6296 9.13086 61.7153 9.1841C61.7993 9.23815 61.8931 9.28237 61.996 9.3184C62.0996 9.35443 62.2032 9.38474 62.3068 9.41012L62.785 9.52805C62.9767 9.57227 63.1636 9.63206 63.3414 9.70822C63.5193 9.78274 63.6809 9.87856 63.822 9.99403C63.964 10.1087 64.0758 10.2479 64.1582 10.4101C64.2406 10.5722 64.283 10.7622 64.283 10.9809C64.283 11.2757 64.2072 11.5353 64.0546 11.7597C63.902 11.9824 63.6817 12.1577 63.3937 12.2838C63.1065 12.4083 62.7589 12.4721 62.3501 12.4721C61.9552 12.4721 61.61 12.4115 61.3204 12.2895C61.0291 12.1691 60.8022 11.9914 60.6382 11.7589C60.4742 11.5263 60.3861 11.2421 60.373 10.908H61.2812C61.2934 11.0824 61.3497 11.2282 61.4452 11.3461C61.5415 11.4624 61.6679 11.5484 61.8222 11.6065C61.978 11.663 62.151 11.6925 62.3436 11.6925C62.5443 11.6925 62.7205 11.6622 62.8731 11.6024C63.024 11.5426 63.1432 11.4599 63.2288 11.3518C63.3162 11.2454 63.3594 11.1193 63.3602 10.9751C63.3586 10.8433 63.3194 10.7344 63.2435 10.6484C63.1668 10.5624 63.0599 10.4903 62.9237 10.4322C62.7866 10.374 62.6267 10.3216 62.4447 10.2757L61.8646 10.1292C61.446 10.0227 61.1139 9.86054 60.8708 9.6427C60.6268 9.42487 60.5069 9.1366 60.5069 8.77544C60.5069 8.47899 60.5885 8.21856 60.7525 7.99499C60.9148 7.77224 61.1376 7.59862 61.4191 7.47496C61.7022 7.35048 62.0213 7.28906 62.377 7.28906C62.7385 7.28906 63.0551 7.34967 63.3284 7.47496C63.6017 7.59862 63.8163 7.76978 63.9714 7.98926C64.1272 8.20792 64.208 8.45933 64.2121 8.7435H63.3227V8.74105Z" fill="black"/>
</svg>
