<svg width="18" height="16" viewBox="0 0 18 16" fill="none" xmlns="http://www.w3.org/2000/svg">
<g clip-path="url(#clip0_575_5851)">
<path d="M10.989 9.91214L10.6474 10.5053C10.5445 10.684 10.354 10.7941 10.1478 10.7941H7.53091C7.32471 10.7941 7.13421 10.684 7.0313 10.5053L6.68967 9.91214H10.989ZM11.9453 8.25161L11.343 9.29745H6.33568L5.73338 8.25161H11.9453ZM11.3651 6.62781L11.9462 7.63695H5.73242L6.31357 6.62781H11.3651ZM10.1478 5.09277C10.354 5.09277 10.5445 5.2029 10.6474 5.38159L11.0111 6.01312H6.66757L7.0313 5.38159C7.13421 5.2029 7.32471 5.09277 7.53091 5.09277H10.1478Z" fill="#00435B"/>
<path d="M3.72333 4.81753C3.43344 3.4119 3.37123 2.33379 3.55861 1.55094C3.67005 1.08534 3.87379 0.705509 4.1836 0.43147C4.51067 0.142156 4.9242 0.000188801 5.38884 0.000188801C6.15536 0.000188801 6.96116 0.349731 7.8223 1.01377C8.17355 1.28462 8.53809 1.61108 8.91669 1.99335C8.94682 1.95456 8.98088 1.91797 9.01883 1.88415C10.0892 0.930313 10.9903 0.337684 11.7611 0.109184C12.2194 -0.0266816 12.6497 -0.0396257 13.0415 0.092237C13.4551 0.231427 13.7846 0.519152 14.0172 0.922163C14.4009 1.58728 14.5021 2.46124 14.359 3.54036C14.3007 3.98022 14.201 4.45936 14.0602 4.97851C14.1133 4.98493 14.1666 4.99671 14.2193 5.01419C15.5774 5.46422 16.539 5.94818 17.1212 6.50126C17.4676 6.83033 17.6938 7.19668 17.7755 7.60221C17.8619 8.03024 17.7777 8.45957 17.5455 8.86228C17.1624 9.52644 16.4582 10.0502 15.4549 10.4651C15.0521 10.6317 14.5962 10.7826 14.087 10.9183C14.1102 10.9708 14.1282 11.0265 14.1403 11.085C14.4302 12.4906 14.4924 13.5687 14.305 14.3515C14.1936 14.8171 13.9898 15.197 13.68 15.471C13.353 15.7603 12.9394 15.9023 12.4748 15.9023C11.7083 15.9023 10.9025 15.5527 10.0413 14.8887C9.68635 14.615 9.31778 14.2844 8.93485 13.8969C8.89545 13.9585 8.84708 14.0158 8.78986 14.0668C7.71951 15.0206 6.81836 15.6133 6.04761 15.8418C5.58932 15.9776 5.15904 15.9906 4.76721 15.8587C4.3536 15.7195 4.02405 15.4318 3.79154 15.0288C3.40781 14.3637 3.30661 13.4897 3.44968 12.4106C3.5101 11.9548 3.61494 11.4569 3.76397 10.916C3.70572 10.9101 3.64723 10.8978 3.58939 10.8786C2.23134 10.4286 1.26971 9.94461 0.687507 9.39153C0.341114 9.06246 0.114916 8.69611 0.0331462 8.29058C-0.0531614 7.86254 0.0309952 7.43321 0.263236 7.0305C0.646248 6.36635 1.35049 5.84254 2.35379 5.42764C2.76864 5.25609 3.23966 5.10119 3.76738 4.96239C3.74857 4.91636 3.73373 4.86796 3.72333 4.81753Z" fill="#002B3B"/>
<path d="M13.1925 11.2228C13.3275 11.1988 13.4569 11.2854 13.487 11.4182L13.4887 11.4261L13.5031 11.5008C13.9699 13.9549 13.6411 15.1819 12.5167 15.1819C11.4166 15.1819 10.0162 14.1349 8.31546 12.0408C8.27788 11.9946 8.25761 11.9366 8.25811 11.877C8.25935 11.7382 8.37077 11.6261 8.50862 11.6231L8.51661 11.6231L8.60617 11.6237C9.32184 11.6276 10.0176 11.6026 10.6934 11.5488C11.4911 11.4853 12.3242 11.3767 13.1925 11.2228ZM5.47065 9.36777L5.47497 9.37505L5.5199 9.45347C5.88003 10.0796 6.25524 10.6738 6.64552 11.2362C7.10515 11.8985 7.62202 12.569 8.19614 13.2476C8.28496 13.3526 8.27482 13.5085 8.17462 13.6011L8.1681 13.607L8.11033 13.6567C6.21079 15.2843 4.97616 15.6092 4.40644 14.6315C3.84877 13.6744 4.05096 11.9342 5.01299 9.41078C5.03413 9.35534 5.07387 9.30894 5.1254 9.27953C5.24585 9.21078 5.39857 9.25048 5.47065 9.36777ZM14.1564 5.74664L14.1642 5.74917L14.2357 5.77386C16.5804 6.58948 17.4712 7.48582 16.9081 8.46286C16.3574 9.41845 14.7564 10.1142 12.1052 10.5501C12.0461 10.5598 11.9854 10.5485 11.9338 10.5182C11.8118 10.4464 11.771 10.2894 11.8428 10.1674C12.2225 9.52147 12.5645 8.87877 12.8688 8.23929C13.2138 7.51404 13.5377 6.7356 13.8403 5.90394C13.8862 5.77785 14.0209 5.70937 14.1486 5.74437L14.1564 5.74664ZM5.87417 5.33598C5.99617 5.4077 6.03693 5.56474 5.96521 5.68674C5.58548 6.33267 5.24348 6.97537 4.93921 7.61485C4.59413 8.34009 4.27029 9.11854 3.96769 9.95019C3.92088 10.0789 3.78151 10.1475 3.65157 10.1075L3.64379 10.105L3.57229 10.0803C1.22762 9.26466 0.336812 8.36832 0.899881 7.39127C1.45058 6.43569 3.05153 5.73994 5.70274 5.30403C5.76186 5.29431 5.82252 5.30562 5.87417 5.33598ZM13.4015 1.31877C13.9592 2.27584 13.757 4.01607 12.795 6.53944C12.7738 6.59489 12.7341 6.64129 12.6826 6.6707C12.5621 6.73945 12.4094 6.69975 12.3373 6.58246L12.333 6.57518L12.2881 6.49675C11.9279 5.87066 11.5527 5.27642 11.1624 4.71403C10.7028 4.05173 10.1859 3.38125 9.61183 2.70259C9.52301 2.5976 9.53315 2.44177 9.63335 2.34909L9.63987 2.34326L9.69764 2.29354C11.5972 0.665934 12.8318 0.34101 13.4015 1.31877ZM5.38738 0.736328C6.48748 0.736328 7.88788 1.78334 9.5886 3.87737C9.62618 3.92363 9.64645 3.98155 9.64595 4.04115C9.64471 4.18 9.53329 4.29208 9.39544 4.29509L9.38745 4.29514L9.29789 4.29451C8.58222 4.29063 7.88648 4.31558 7.21068 4.36936C6.41292 4.43286 5.57989 4.54154 4.71158 4.69543C4.57655 4.71936 4.44716 4.63279 4.41701 4.49998L4.41535 4.49211L4.40097 4.41737C3.93419 1.96334 4.263 0.736328 5.38738 0.736328Z" fill="#FF4154"/>
<path d="M7.74244 5.125H9.93903C10.2603 5.125 10.557 5.29682 10.7169 5.57543L11.8198 7.49723C11.9785 7.77369 11.9785 8.11359 11.8198 8.39005L10.7169 10.3119C10.557 10.5905 10.2603 10.7623 9.93903 10.7623H7.74244C7.4212 10.7623 7.1245 10.5905 6.9646 10.3119L5.86167 8.39005C5.703 8.11359 5.703 7.77369 5.86167 7.49723L6.9646 5.57543C7.1245 5.29682 7.4212 5.125 7.74244 5.125ZM9.60425 5.70504C9.92566 5.70504 10.2225 5.87704 10.3823 6.15589L11.1514 7.49764C11.3098 7.77389 11.3098 8.11339 11.1514 8.38964L10.3823 9.7314C10.2225 10.0102 9.92566 10.1822 9.60425 10.1822H8.07722C7.75581 10.1822 7.45898 10.0102 7.29914 9.7314L6.53004 8.38964C6.3717 8.11339 6.3717 7.77389 6.53004 7.49764L7.29914 6.15589C7.45898 5.87704 7.75581 5.70504 8.07722 5.70504H9.60425ZM9.24341 6.33946H8.43806C8.11698 6.33946 7.8204 6.51111 7.66044 6.78951L7.25403 7.49684C7.09507 7.7735 7.09507 8.11378 7.25403 8.39044L7.66044 9.09778C7.8204 9.37618 8.11698 9.54782 8.43806 9.54782H9.24341C9.56449 9.54782 9.86107 9.37618 10.021 9.09778L10.4274 8.39044C10.5864 8.11378 10.5864 7.7735 10.4274 7.49684L10.021 6.78951C9.86107 6.51111 9.56449 6.33946 9.24341 6.33946ZM8.89596 6.94669C9.21679 6.94669 9.51319 7.11809 9.67324 7.39615L9.73086 7.49626C9.89027 7.77322 9.89027 8.11407 9.73086 8.39102L9.67324 8.49113C9.51319 8.7692 9.21679 8.94059 8.89596 8.94059H8.78551C8.46468 8.94059 8.16828 8.7692 8.00823 8.49113L7.95061 8.39102C7.7912 8.11407 7.7912 7.77322 7.95061 7.49626L8.00823 7.39615C8.16828 7.11809 8.46468 6.94669 8.78551 6.94669H8.89596ZM8.84088 7.54486C8.69808 7.54486 8.56639 7.62086 8.49509 7.74425C8.42381 7.86762 8.42381 8.01966 8.49509 8.14303C8.56639 8.26642 8.69808 8.34242 8.84059 8.34242C8.98339 8.34242 9.11508 8.26642 9.18638 8.14303C9.25766 8.01966 9.25766 7.86762 9.18638 7.74425C9.11508 7.62086 8.98339 7.54486 8.84088 7.54486ZM5.60547 7.94364H6.32344Z" fill="#FFD94C"/>
</g>
<defs>
<clipPath id="clip0_575_5851">
<rect width="17.8087" height="16" fill="white"/>
</clipPath>
</defs>
</svg>
