<svg width="current" height="current" viewBox="0 0 140 40" fill="none" xmlns="http://www.w3.org/2000/svg">
<path d="M125.091 31.7528V31.1844H126.566L122.944 23.8582L122.336 24.0161V31.1844H123.81V31.7528H114.613V31.1844H116.375V8.63726H114.484V8.06885H122.336V23.3845L122.848 23.195L130.059 17.2898H127.046V16.7214H133.359V17.2898H131.116L127.303 20.4793L132.847 31.1844H134V31.7528H125.091Z" fill="current"/>
<path d="M108.406 16.9742C107.466 16.9742 106.793 17.4794 106.387 18.49C105.982 19.5005 105.779 21.1741 105.779 23.511V25.153C105.779 27.2372 106.014 28.732 106.484 29.6372C106.954 30.5425 107.819 30.9951 109.079 30.9951C110.34 30.9951 111.344 30.574 112.092 29.7319C112.839 28.8898 113.32 27.932 113.534 26.8583L114.11 26.9214C113.705 28.732 112.957 30.0372 111.867 30.8372C110.756 31.6582 109.229 32.0688 107.285 32.0688C104.807 32.0688 102.905 31.4161 101.581 30.1109C100.256 28.7846 99.5938 26.8583 99.5938 24.332C99.5938 21.7847 100.341 19.8268 101.837 18.4584C103.354 17.09 105.458 16.4058 108.15 16.4058C110.051 16.4058 111.504 16.7742 112.508 17.511C113.512 18.2268 114.014 19.1321 114.014 20.2268C114.014 21.3215 113.769 22.1215 113.277 22.6268C112.807 23.132 112.145 23.3846 111.29 23.3846C110.457 23.3846 109.784 23.1636 109.272 22.7215C108.759 22.2794 108.502 21.6268 108.502 20.7636C108.502 20.3847 108.556 20.0057 108.663 19.6268H109.72C109.87 19.2057 109.945 18.8268 109.945 18.49C109.945 17.4794 109.432 16.9742 108.406 16.9742Z" fill="current"/>
<path d="M93.9756 14.5431C92.8433 14.5431 92.0315 14.2589 91.5401 13.6904C91.0701 13.122 90.8351 12.4168 90.8351 11.5747C90.8351 10.7326 91.0915 10.0378 91.6042 9.49048C92.1383 8.94311 92.9395 8.66943 94.0077 8.66943C95.0759 8.66943 95.8877 8.92206 96.4431 9.42732C96.9986 9.91153 97.2763 10.6168 97.2763 11.5431C97.2763 12.4483 97.0093 13.1747 96.4752 13.722C95.9411 14.2694 95.1079 14.5431 93.9756 14.5431ZM89.1367 16.722H96.9879V31.185H98.7825V31.7534H89.2649V31.185H91.0274V17.2904H89.1367V16.722Z" fill="current"/>
<path d="M69.1133 9.64746H78.5347C81.7606 9.64746 84.1641 10.1106 85.745 11.0369C87.3259 11.9422 88.1164 13.5737 88.1164 15.9316C88.1164 18.5421 87.155 20.3421 85.2323 21.3316C83.4377 22.2368 80.9275 22.6894 77.7015 22.6894H77.4452V31.1525H81.4509V31.7525H69.1133V31.1525H71.1962V10.2475H69.1133V9.64746ZM77.4452 10.2475V22.0894H78.1181C79.3999 22.0894 80.2865 21.6579 80.7779 20.7947C81.2693 19.9316 81.515 18.5316 81.515 16.5948V15.079C81.515 13.2895 81.28 12.0369 80.81 11.3211C80.3613 10.6053 79.5281 10.2475 78.3104 10.2475H77.4452Z" fill="current"/>
<path d="M53.1866 17.2896V16.7212H61.4544V17.2896H60.1405L63.0247 27.9316L65.8767 17.2896H63.6656V16.7212H67.9917V17.2896H66.6458L62.8003 31.7526H58.4101L55.6221 22.058L52.6098 31.7526H48.3157L43.5729 17.2896H42.1309V16.7212H51.8407V17.2896H49.918L52.8662 28.0263L55.1735 20.6369L54.3723 17.2896H53.1866Z" fill="current"/>
<path d="M35.1018 32.0688C32.3458 32.0688 30.2736 31.374 28.8849 29.9846C27.5176 28.5741 26.834 26.6267 26.834 24.1425C26.834 21.6373 27.6031 19.7215 29.1413 18.3952C30.7008 17.0689 32.677 16.4058 35.0697 16.4058C39.9193 16.4058 42.248 18.8057 42.0557 23.6057H33.0188V24.8373C33.0188 26.9004 33.2859 28.4583 33.8199 29.5109C34.354 30.5635 35.2834 31.0898 36.6079 31.0898C39.0861 31.0898 40.7098 29.7846 41.4789 27.1741L42.0557 27.2688C41.6498 28.7846 40.9127 29.9635 39.8445 30.8056C38.7977 31.6477 37.2168 32.0688 35.1018 32.0688ZM33.0508 22.9741H36.3516V21.4268C36.3516 19.7215 36.2447 18.5636 36.0311 17.9531C35.8388 17.3215 35.4329 17.0058 34.8134 17.0058C34.2152 17.0058 33.7665 17.3426 33.4674 18.0163C33.1897 18.6689 33.0508 19.8057 33.0508 21.4268V22.9741Z" fill="current"/>
<path d="M24.1058 10.2475V31.7525H19.6194L8.62775 11.3211V31.1525H10.3903V31.7525H6V31.1525H7.76251V10.2475H6V9.64746H14.8446L23.2406 25.4999V10.2475H21.4781V9.64746H25.8683V10.2475H24.1058Z" fill="current"/>
</svg>
